<svg id="Layer_1" data-name="Layer 1" xmlns="http://www.w3.org/2000/svg" viewBox="0 0 147.6 17"><defs><style>.cls-1{fill:#fff;}</style></defs><title>AppliedBiosystems</title><path class="cls-1" d="M73.18,20.54c0-2.74-1.41-5.13-4.36-5.13a3.47,3.47,0,0,0-3.36,2.13h0V12H64.24V25.39h1.09V23.55h0a3.62,3.62,0,0,0,3.45,2.12c3,0,4.36-2.39,4.36-5.13Zm-1.18,0c0,2-.92,4.13-3.18,4.13-2.51,0-3.4-2.12-3.4-4.13s.89-4.13,3.4-4.13c2.26,0,3.18,2.12,3.18,4.13Z" transform="translate(-1.32 -11.97)"/><polygon class="cls-1" points="73.17 13.41 74.36 13.41 74.36 3.72 73.17 3.72 73.17 13.41 73.17 13.41"/><path class="cls-1" d="M73.68,13.87" transform="translate(-1.32 -11.97)"/><path class="cls-1" d="M86.11,20.54c0-2.78-1.62-5.13-4.59-5.13s-4.58,2.35-4.58,5.13,1.62,5.13,4.58,5.13,4.59-2.35,4.59-5.13Zm-1.19,0c0,2.07-1.12,4.13-3.4,4.13s-3.39-2.06-3.39-4.13,1.12-4.13,3.39-4.13,3.4,2.07,3.4,4.13Z" transform="translate(-1.32 -11.97)"/><path class="cls-1" d="M94.48,18.53c-.07-2.1-1.61-3.12-3.55-3.12-1.71,0-3.64.76-3.64,2.73,0,1.65,1.16,2.18,2.7,2.59l1.53.34c1.07.26,2.12.64,2.12,1.76,0,1.35-1.54,1.84-2.65,1.84a2.54,2.54,0,0,1-2.85-2.42H87c.19,2.37,1.73,3.42,4,3.42,1.81,0,3.89-.81,3.89-2.91,0-1.69-1.41-2.48-2.76-2.69l-1.58-.36c-.81-.2-2-.58-2-1.63,0-1.26,1.24-1.67,2.29-1.67,1.36,0,2.48.66,2.54,2.12Z" transform="translate(-1.32 -11.97)"/><path class="cls-1" d="M98.75,25.35l-.41,1.11c-.4.9-.64,1.52-1.69,1.52a3.82,3.82,0,0,1-.81-.1v1a3.35,3.35,0,0,0,.9.09c1.48,0,1.88-.47,2.55-2.1L103.5,15.7h-1.18l-3,8.26L96.14,15.7H94.88l3.87,9.65Z" transform="translate(-1.32 -11.97)"/><path class="cls-1" d="M111.1,18.53c-.07-2.1-1.61-3.12-3.55-3.12-1.71,0-3.64.76-3.64,2.73,0,1.65,1.17,2.18,2.7,2.59l1.53.34c1.07.26,2.12.64,2.12,1.76,0,1.35-1.54,1.84-2.65,1.84a2.54,2.54,0,0,1-2.85-2.42h-1.19c.19,2.37,1.73,3.42,4,3.42,1.81,0,3.89-.81,3.89-2.91,0-1.69-1.41-2.48-2.76-2.69l-1.58-.36c-.8-.2-2-.58-2-1.63,0-1.26,1.24-1.67,2.29-1.67,1.36,0,2.48.66,2.54,2.12Z" transform="translate(-1.32 -11.97)"/><path class="cls-1" d="M113.35,13.85V15.7h-1.69v1h1.69v6.63c0,1.65.52,2.18,2.1,2.18.36,0,.69,0,1,0v-1c-.34,0-.68.05-1,.05-.85-.05-1-.5-1-1.27V16.69h2v-1h-2V13.22l-1.18.63Z" transform="translate(-1.32 -11.97)"/><path class="cls-1" d="M121.21,15.34c-3.08,0-4.37,2.58-4.37,5.13,0,2.76,1.29,5.13,4.37,5.13,2.44,0,3.72-1.28,4.23-3.48h-1.18a3,3,0,0,1-3.05,2.48c-2.27,0-3.17-2.08-3.19-3.81h7.46c.09-2.72-1.15-5.45-4.27-5.45Zm3.08,4.45H118c.19-1.76,1.26-3.45,3.19-3.45s3,1.67,3.08,3.45Z" transform="translate(-1.32 -11.97)"/><path class="cls-1" d="M126.7,25.32h1.18V19.91c0-2,.85-3.57,2.89-3.57,1.51,0,2,1.09,2,2.4v6.58H134V19.83c0-1.8.59-3.49,2.63-3.49,1.69,0,2.29.86,2.29,2.46v6.52h1.19V18.74c0-2.29-1.09-3.4-3.21-3.4a3.27,3.27,0,0,0-3.08,1.9,2.7,2.7,0,0,0-2.78-1.9,3.4,3.4,0,0,0-3.18,1.92h0V15.63H126.7v9.69Z" transform="translate(-1.32 -11.97)"/><path class="cls-1" d="M148.59,18.46c-.08-2.1-1.62-3.12-3.55-3.12-1.71,0-3.65.76-3.65,2.73,0,1.65,1.17,2.18,2.71,2.59l1.52.34c1.07.26,2.12.63,2.12,1.76,0,1.35-1.54,1.84-2.65,1.84a2.55,2.55,0,0,1-2.85-2.42h-1.18c.18,2.37,1.72,3.42,4,3.42,1.8,0,3.88-.81,3.88-2.91,0-1.69-1.41-2.48-2.76-2.69l-1.57-.36c-.81-.2-2-.58-2-1.63,0-1.26,1.24-1.67,2.29-1.67,1.35,0,2.48.66,2.53,2.12Z" transform="translate(-1.32 -11.97)"/><polygon class="cls-1" points="74.93 0.02 74.34 1.9 73.17 1.9 73.75 0.02 74.93 0.02 74.93 0.02"/><path class="cls-1" d="M11,25.4V23.92a2.71,2.71,0,0,1-.52,0c-.4,0-.51-.21-.51-.73v-5c0-2.05-2-2.82-3.89-2.82-2.14,0-4.26.74-4.41,3.23H3.82c.1-1.05.94-1.54,2.14-1.54.87,0,2,.21,2,1.32S6.6,19.51,5.06,19.79c-1.8.21-3.74.6-3.74,3,0,1.9,1.58,2.84,3.33,2.84A5,5,0,0,0,8,24.47c.17.88.79,1.18,1.65,1.18A5,5,0,0,0,11,25.4ZM7.84,22.12c0,1.35-1.46,1.84-2.4,1.84-.75,0-2-.28-2-1.24,0-1.13.82-1.47,1.74-1.62a7.5,7.5,0,0,0,2.63-.58v1.6Z" transform="translate(-1.32 -11.97)"/><path class="cls-1" d="M21.62,20.58c0-2.84-1.49-5.17-4.55-5.17a3.23,3.23,0,0,0-3,1.58h0V15.68H12V29h2.14V24.13h0a3.78,3.78,0,0,0,3.25,1.52c2.87,0,4.19-2.46,4.19-5.07Zm-2.15,0c0,1.69-.73,3.42-2.68,3.42-1.73,0-2.72-1.47-2.72-3.42S15,17.1,16.79,17.1s2.68,1.68,2.68,3.44Z" transform="translate(-1.32 -11.97)"/><path class="cls-1" d="M32.26,20.58c0-2.84-1.48-5.17-4.54-5.17a3.25,3.25,0,0,0-3,1.58h0V15.68h-2V29h2.15V24.13h0a3.78,3.78,0,0,0,3.25,1.52c2.87,0,4.19-2.46,4.19-5.07Zm-2.14,0c0,1.69-.73,3.42-2.69,3.42-1.72,0-2.72-1.47-2.72-3.42s.92-3.44,2.72-3.44,2.69,1.68,2.69,3.44Z" transform="translate(-1.32 -11.97)"/><polygon class="cls-1" points="31.92 13.41 34.06 13.41 34.06 0.01 31.92 0.01 31.92 13.41 31.92 13.41"/><polygon class="cls-1" points="35.71 13.41 37.85 13.41 37.85 3.71 35.71 3.71 35.71 13.41 35.71 13.41"/><path class="cls-1" d="M44.89,15.41c-2.89,0-4.7,2.37-4.7,5.13,0,3,1.71,5.11,4.75,5.11a4.25,4.25,0,0,0,4.4-3.31h-2A2.26,2.26,0,0,1,44.94,24a2.58,2.58,0,0,1-2.61-2.87h7.14c.36-2.92-1.52-5.68-4.58-5.68Zm2.44,4.27h-5a2.5,2.5,0,1,1,5,0Z" transform="translate(-1.32 -11.97)"/><path class="cls-1" d="M60.11,25.39V12H58v5h0a3.74,3.74,0,0,0-3.23-1.53c-2.12,0-4.2,1.54-4.2,5.06,0,2.91,1.48,5.18,4.54,5.18a3.24,3.24,0,0,0,3-1.58h0v1.32Zm-2.06-4.87c0,1.69-.81,3.44-2.73,3.44s-2.68-1.65-2.68-3.33.71-3.53,2.72-3.53c1.65,0,2.69,1.28,2.69,3.42Z" transform="translate(-1.32 -11.97)"/><polygon class="cls-1" points="38.49 0 37.85 2.04 35.7 2.04 36.34 0 38.49 0 38.49 0"/></svg>