<svg id="Layer_1" data-name="Layer 1" xmlns="http://www.w3.org/2000/svg" viewBox="0 0 77.75 17"><defs><style>.cls-1{fill:#fff;}</style></defs><title>invitrogen</title><polygon class="cls-1" points="0 13.21 2.11 13.21 2.11 3.65 0 3.65 0 13.21 0 13.21"/><path class="cls-1" d="M37.19,14" transform="translate(-37.31 -11.97)"/><path class="cls-1" d="M40.71,25.18h2.1V19.54A2.33,2.33,0,0,1,45.13,17c1.23,0,1.83.64,1.86,2.14v6H49.1V18.62c0-2.15-1.31-3.26-3.38-3.26a3.43,3.43,0,0,0-3,1.7l0,0V15.62h-2v9.56Z" transform="translate(-37.31 -11.97)"/><polygon class="cls-1" points="15.62 13.21 17.99 13.21 21.41 3.65 19.23 3.65 16.9 10.99 16.86 10.99 14.44 3.65 12.15 3.65 15.62 13.21 15.62 13.21"/><polygon class="cls-1" points="22.29 13.21 24.4 13.21 24.4 3.65 22.29 3.65 22.29 13.21 22.29 13.21"/><path class="cls-1" d="M59.5,14" transform="translate(-37.31 -11.97)"/><path class="cls-1" d="M62.77,17.19h1.59v5.64c0,1.59.44,2.44,2.64,2.44.46,0,.91-.07,1.37-.11V23.54a3.82,3.82,0,0,1-.89.07c-.94,0-1-.44-1-1.31V17.19h1.91V15.62H66.46V13.17l-2.1,1.1v1.35H62.77v1.57Z" transform="translate(-37.31 -11.97)"/><path class="cls-1" d="M69.71,25.18h2.11V20.63c0-2.11,1.15-3.27,2.59-3.27a7,7,0,0,1,.91.09v-2a4.79,4.79,0,0,0-.8-.06,3.08,3.08,0,0,0-2.79,2.11h0V15.62h-2v9.56Z" transform="translate(-37.31 -11.97)"/><path class="cls-1" d="M85.11,20.39c0-2.92-1.76-5-4.83-5s-4.83,2.11-4.83,5,1.76,5.05,4.83,5.05,4.83-2.11,4.83-5.05Zm-2.11,0c0,1.67-.83,3.39-2.72,3.39s-2.72-1.72-2.72-3.39S78.39,17,80.28,17,83,18.75,83,20.39Z" transform="translate(-37.31 -11.97)"/><path class="cls-1" d="M95.36,24.68V15.62h-2.1v1.31h0a3,3,0,0,0-2.83-1.57c-2.72,0-4.33,2.22-4.33,4.79,0,2.74,1.26,5,4.29,5a3.28,3.28,0,0,0,2.87-1.68h0V25A2.16,2.16,0,0,1,90.8,27.4c-1.08,0-2-.2-2.3-1.41H86.39c.19,2.24,2.35,3,4.28,3,3,0,4.69-1.42,4.69-4.29Zm-2.1-4.49c0,1.63-.71,3.33-2.58,3.33s-2.51-1.59-2.51-3.17S88.82,17,90.68,17s2.58,1.51,2.58,3.16Z" transform="translate(-37.31 -11.97)"/><path class="cls-1" d="M101.2,15.36c-2.84,0-4.62,2.33-4.62,5.05,0,2.94,1.68,5,4.68,5a4.19,4.19,0,0,0,4.33-3.25h-2a2.22,2.22,0,0,1-2.33,1.59A2.55,2.55,0,0,1,98.69,21h7c.35-2.87-1.5-5.59-4.52-5.59Zm2.41,4.2H98.69a2.46,2.46,0,1,1,4.92,0Z" transform="translate(-37.31 -11.97)"/><path class="cls-1" d="M106.66,25.18h2.11V19.54A2.33,2.33,0,0,1,111.08,17c1.24,0,1.83.64,1.87,2.14v6h2.11V18.62c0-2.15-1.31-3.26-3.39-3.26a3.43,3.43,0,0,0-3,1.7l0,0V15.62h-2v9.56Z" transform="translate(-37.31 -11.97)"/><polygon class="cls-1" points="25.03 0 24.4 2.01 22.29 2.01 22.91 0 25.03 0 25.03 0"/><polygon class="cls-1" points="2.75 0 2.12 2.01 0 2.01 0.63 0 2.75 0 2.75 0"/></svg>