<svg id="Layer_1" data-name="Layer 1" xmlns="http://www.w3.org/2000/svg" viewBox="0 0 142.82 17"><defs><style>.cls-1{fill:#fff;}</style></defs><title>ThermoScientific</title><path class="cls-1" d="M79.45,21.55l-1.8-.41c-.92-.23-2.29-.66-2.29-1.86,0-1.43,1.41-1.9,2.61-1.9,1.54,0,2.82.75,2.89,2.41h1.35c-.09-2.39-1.84-3.55-4-3.55-2,0-4.15.86-4.15,3.11,0,1.88,1.33,2.48,3.08,2.95l1.73.38c1.22.3,2.42.73,2.42,2,0,1.54-1.75,2.09-3,2.09-1.8,0-3.15-.94-3.26-2.76H73.62c.22,2.7,2,3.9,4.54,3.9,2.06,0,4.43-.92,4.43-3.32C82.59,22.68,81,21.78,79.45,21.55Z" transform="translate(-3.59 -10.93)"/><path class="cls-1" d="M88.57,26.79c-2.59,0-3.87-2.35-3.87-4.71s1.28-4.7,3.87-4.7A3,3,0,0,1,91.69,20H93a4.13,4.13,0,0,0-4.47-3.79c-3.38,0-5.22,2.68-5.22,5.84s1.84,5.85,5.22,5.85c2.46,0,4.19-1.63,4.56-4.28H91.78A3.28,3.28,0,0,1,88.57,26.79Z" transform="translate(-3.59 -10.93)"/><rect class="cls-1" x="90.95" y="5.64" width="1.35" height="11.04"/><path class="cls-1" d="M102.28,16.24c-3.51,0-5,2.93-5,5.84,0,3.15,1.48,5.85,5,5.85,2.78,0,4.23-1.46,4.81-4h-1.35a3.35,3.35,0,0,1-3.46,2.82c-2.59,0-3.62-2.37-3.64-4.34h8.5C107.24,19.35,105.83,16.24,102.28,16.24Zm-3.64,5.07c.21-2,1.43-3.93,3.64-3.93s3.44,1.9,3.51,3.93Z" transform="translate(-3.59 -10.93)"/><path class="cls-1" d="M113.13,16.24a3.74,3.74,0,0,0-3.53,2.23h0V16.56h-1.35V27.61h1.35V21.16c0-2.16,1.33-3.78,3.47-3.78s2.8,1.43,2.8,3.33v6.9h1.35V20.5C117.18,17.87,116.24,16.24,113.13,16.24Z" transform="translate(-3.59 -10.93)"/><path class="cls-1" d="M120.68,13.74l-1.35.71v2.11H117.4V17.7h1.93v7.55c0,1.89.6,2.48,2.39,2.48.41,0,.8,0,1.2,0V26.54a11.07,11.07,0,0,1-1.15.06c-1-.06-1.09-.58-1.09-1.45V17.7h2.24V16.56h-2.24Z" transform="translate(-3.59 -10.93)"/><rect class="cls-1" x="120.79" y="5.64" width="1.35" height="11.04"/><rect class="cls-1" x="130.47" y="5.64" width="1.35" height="11.04"/><path class="cls-1" d="M129.05,15.56v1h-1.88V17.7h1.88v9.91h1.35V17.7h2.19V16.56H130.4v-1c0-1.2,0-2.14,1.48-2.14a5,5,0,0,1,1,.11V12.41a7.51,7.51,0,0,0-1.13-.08C129.57,12.33,129,13.65,129.05,15.56Z" transform="translate(-3.59 -10.93)"/><path class="cls-1" d="M145.06,23.65a3.28,3.28,0,0,1-3.21,3.14c-2.59,0-3.87-2.35-3.87-4.71s1.28-4.7,3.87-4.7A3,3,0,0,1,145,20h1.35a4.13,4.13,0,0,0-4.48-3.79c-3.38,0-5.22,2.68-5.22,5.84s1.84,5.85,5.22,5.85c2.47,0,4.2-1.63,4.56-4.28Z" transform="translate(-3.59 -10.93)"/><polygon class="cls-1" points="130.48 3.54 131.81 3.54 132.48 1.4 131.14 1.4 130.48 3.54"/><polygon class="cls-1" points="120.78 3.54 122.12 3.54 122.79 1.4 121.45 1.4 120.78 3.54"/><polygon class="cls-1" points="90.95 3.54 92.29 3.54 92.95 1.4 91.62 1.4 90.95 3.54"/><path class="cls-1" d="M64.2,16.24c-3.55,0-5.58,2.44-5.58,5.82s2,5.85,5.58,5.85,5.59-2.44,5.59-5.85S67.76,16.24,64.2,16.24Zm0,9.74c-2.18,0-3.14-2-3.14-3.92s1-3.89,3.14-3.89,3.15,2,3.15,3.89S66.39,26,64.2,26Z" transform="translate(-3.59 -10.93)"/><path class="cls-1" d="M53.78,16.24a4,4,0,0,0-3.47,1.84,3.13,3.13,0,0,0-3.1-1.84,3.68,3.68,0,0,0-3.4,1.84h-.07V16.54H41.43V27.61h2.44V21a2.57,2.57,0,0,1,2.42-2.87c1.47,0,2,.81,2,2.33v7.11h2.44V21.12c0-1.86.7-2.95,2.35-2.95,1.9,0,2,1.22,2,3v6.47h2.44V20C57.48,17.27,56.11,16.24,53.78,16.24Z" transform="translate(-3.59 -10.93)"/><path class="cls-1" d="M35.93,18.68h0V16.54H33.6V27.61H36V22.34c0-2.44,1.33-3.79,3-3.79a9.6,9.6,0,0,1,1.05.11V16.31a4.81,4.81,0,0,0-.92-.07A3.58,3.58,0,0,0,35.93,18.68Z" transform="translate(-3.59 -10.93)"/><path class="cls-1" d="M27.3,16.24C24,16.24,22,18.94,22,22.08c0,3.41,1.95,5.83,5.42,5.83a4.83,4.83,0,0,0,5-3.77H30.06A2.55,2.55,0,0,1,27.37,26c-2,0-3-1.54-3-3.27h8.13C32.93,19.39,30.79,16.24,27.3,16.24ZM24.39,21.1a2.85,2.85,0,1,1,5.69,0Z" transform="translate(-3.59 -10.93)"/><path class="cls-1" d="M17,16.24A3.87,3.87,0,0,0,13.64,18h0V13.4h0V11.12h0v-.19l-2.45,1.25v.76h0v1.2h0v.43h0v13H13.6V21.08a2.69,2.69,0,0,1,2.67-2.91c1.44,0,2.12.75,2.16,2.48v7h2.44V20C20.87,17.53,19.35,16.24,17,16.24Z" transform="translate(-3.59 -10.93)"/><path class="cls-1" d="M7.87,13.77,5.43,15v1.51H3.59v1.82H5.43v6.53c0,1.84.51,2.82,3.06,2.82.53,0,1-.08,1.58-.13V25.7a4,4,0,0,1-1,.09c-1.09,0-1.17-.52-1.17-1.52V18.36h2.2V16.54H7.87Z" transform="translate(-3.59 -10.93)"/></svg>