<svg id="Layer_1" data-name="Layer 1" xmlns="http://www.w3.org/2000/svg" viewBox="0 0 508.85 140.19"><defs><style>.cls-1{fill:#fff;}.cls-2{fill:none;}</style></defs><title>Fisher-Scientific-Single-Line-White</title><polygon class="cls-1" points="88.05 47.68 61.14 47.68 53.45 55.4 53.45 64.33 51.23 64.33 45.73 73.3 53.45 73.3 53.45 97.63 62.41 88.66 62.41 73.3 73.3 73.3 78.48 64.33 62.41 64.33 62.41 56.64 82.91 56.64 88.05 47.68 88.05 47.68"/><path class="cls-1" d="M67,105.07a35,35,0,1,0-35-35,35,35,0,0,0,35,35Zm-30.7-35A30.7,30.7,0,1,1,67,100.8a30.7,30.7,0,0,1-30.7-30.71Z"/><path class="cls-1" d="M175.78,94.48h7.34V74.83c0-4.9,3.16-8.77,8.06-8.77,4.32,0,6.38,2.26,6.51,7.48V94.48H205V71.61c0-7.48-4.57-11.35-11.79-11.35a11.67,11.67,0,0,0-10,5.29h-.13V48.31l-7.34,3.75V94.48Z"/><path class="cls-1" d="M111.84,66.65h5.48V94.49h7.35V66.65h4.57l1.68-5.48h-6.25V57.76c0-2.78,1.61-3.48,3.61-3.48a12.39,12.39,0,0,1,3.41.38V48.93a20.26,20.26,0,0,0-5.15-.45c-4.77,0-9.22,1.41-9.22,9.92v2.77h-5.48v5.48Z"/><polygon class="cls-1" points="134.1 94.49 141.45 94.49 141.45 61.17 134.1 61.17 134.1 94.49 134.1 94.49"/><path class="cls-1" d="M143.75,83.79c.13,7.86,6.38,11.6,14.76,11.6,6.89,0,14.88-2.9,14.88-10.83,0-6.57-5.41-8.5-10.76-9.73s-10.83-1.74-10.83-5.35c0-2.9,3.94-3.41,6.06-3.41,3.22,0,6.12,1,6.77,4.45h7.67c-.91-7.42-7.09-10.25-13.92-10.25-6.06,0-13.92,2.25-13.92,9.54,0,6.76,5.28,8.7,10.7,9.86s10.69,1.67,10.89,5.54-4.64,4.38-7.41,4.38c-3.94,0-7.16-1.55-7.54-5.8Z"/><path class="cls-1" d="M223.42,60.27c-9.93,0-16.11,8.12-16.11,17.59,0,10.25,5.86,17.53,16.3,17.53,7.28,0,13.47-4.06,15.08-11.34h-7c-1.29,3.67-3.87,5.54-8.12,5.54-6.12,0-9-4.64-9-9.86h24.49c1.22-10-5.22-19.46-15.72-19.46Zm8.37,14.63H214.65c.2-5,3.68-8.83,8.77-8.83s8.12,4.19,8.37,8.83Z"/><path class="cls-1" d="M241.52,94.49h7.35V78.63c0-7.34,4-11.4,9-11.4a26,26,0,0,1,3.16.32V60.46a18.24,18.24,0,0,0-2.77-.19c-4.51,0-8.89,3.8-9.73,7.34h-.13V61.17h-6.9V94.49Z"/><polygon class="cls-1" points="143.75 48.36 141.54 55.43 134.1 55.42 136.31 48.36 143.75 48.36 143.75 48.36"/><path class="cls-1" d="M294.86,70.69c-.26-7.28-5.59-10.79-12.29-10.79-5.91,0-12.61,2.6-12.61,9.42,0,5.72,4,7.54,9.36,9l5.27,1.17c3.7.91,7.34,2.21,7.34,6.11,0,4.68-5.33,6.37-9.16,6.37-5.46,0-9.56-2.86-9.88-8.38h-4.1c.65,8.19,6,11.83,13.78,11.83,6.24,0,13.46-2.8,13.46-10.08,0-5.85-4.88-8.58-9.56-9.29L281,74.78c-2.79-.71-6.95-2-6.95-5.65,0-4.36,4.29-5.79,7.93-5.79,4.68,0,8.58,2.28,8.77,7.35Z"/><path class="cls-1" d="M326.77,71.4c-.91-7.67-6.43-11.5-13.58-11.5-10.27,0-15.86,8.12-15.86,17.74s5.59,17.75,15.86,17.75c7.47,0,12.74-4.94,13.84-13h-4.09c-.52,5.59-4.68,9.55-9.75,9.55-7.87,0-11.77-7.15-11.77-14.3s3.9-14.3,11.77-14.3c5.33,0,8.38,3.06,9.49,8.06Z"/><polygon class="cls-1" points="329.32 94.41 333.41 94.41 333.41 60.87 329.32 60.87 329.32 94.41 329.32 94.41"/><path class="cls-1" d="M350.82,59.9c-10.66,0-15.14,8.9-15.14,17.74,0,9.56,4.48,17.75,15.14,17.75,8.45,0,12.87-4.42,14.63-12h-4.1c-1.3,5.07-4.55,8.58-10.53,8.58-7.86,0-11-7.21-11.05-13.19h25.81c.32-9.43-4-18.85-14.76-18.85Zm10.66,15.4H339.77c.65-6.11,4.36-12,11.05-12s10.47,5.79,10.66,12Z"/><path class="cls-1" d="M367.84,94.41h4.1V74.85c.13-6.57,4-11.51,10.53-11.51S391,67.7,391,73.48V94.41h4.1V72.83c0-8-2.86-12.93-12.29-12.93-4.74,0-9.23,2.73-10.72,6.76h-.13V60.87h-4.1V94.41Z"/><path class="cls-1" d="M401.6,54.46v6.41h-5.85v3.45h5.85V87.26c-.06,5.72,1.82,7.54,7.28,7.54,1.24,0,2.41-.13,3.64-.13V91.16a31.77,31.77,0,0,1-3.51.2c-2.92-.2-3.31-1.76-3.31-4.42V64.32h6.82V60.87H405.7V52.31l-4.1,2.15Z"/><polygon class="cls-1" points="414.93 94.41 419.02 94.41 419.02 60.87 414.93 60.87 414.93 94.41 414.93 94.41"/><polygon class="cls-1" points="440.35 94.41 444.44 94.41 444.44 60.87 440.35 60.87 440.35 94.41 440.35 94.41"/><path class="cls-1" d="M427.15,94.41h4.09V64.32h6.63V60.87h-6.63V58c.07-3.64-.06-6.5,4.49-6.5a17.33,17.33,0,0,1,3,.32V48.26a22.22,22.22,0,0,0-3.45-.26c-6.56,0-8.19,4-8.12,9.82v3h-5.72v3.45h5.72V94.41Z"/><path class="cls-1" d="M445.93,54.57"/><path class="cls-1" d="M476.61,71.4c-.91-7.67-6.44-11.5-13.59-11.5-10.27,0-15.86,8.12-15.86,17.74S452.75,95.39,463,95.39c7.48,0,12.74-4.94,13.85-13h-4.1c-.52,5.59-4.68,9.55-9.75,9.55-7.86,0-11.76-7.15-11.76-14.3s3.9-14.3,11.76-14.3c5.33,0,8.39,3.06,9.49,8.06Z"/><polygon class="cls-1" points="446.45 48.01 444.42 54.51 440.36 54.51 442.39 48.01 446.45 48.01 446.45 48.01"/><polygon class="cls-1" points="421.01 48.01 418.98 54.51 414.92 54.51 416.95 48.01 421.01 48.01 421.01 48.01"/><polygon class="cls-1" points="335.4 48.01 333.37 54.51 329.31 54.51 331.34 48.01 335.4 48.01 335.4 48.01"/><rect class="cls-2" width="508.85" height="140.19"/></svg>