<svg id="Layer_1" data-name="Layer 1" xmlns="http://www.w3.org/2000/svg" viewBox="0 0 426.44 59.73"><defs><style>.cls-1{fill:#fff;}</style></defs><title>unity-lab-services-white</title><rect class="cls-1" x="137.61" width="4.1" height="46.41"/><path class="cls-1" d="M202.65,68.73c.07,6.56-5.46,10.53-11.7,10.53-3.83,0-7.47-2.54-7.47-6.63,0-6.57,8.64-6.5,15.6-7.74,1.1-.19,2.92-.52,3.44-1.49h.13Zm7.8,12.74V78a3.8,3.8,0,0,1-1.3.26,2.18,2.18,0,0,1-2.4-2.47V58c0-9-6.44-10.79-12.35-10.79-7.67,0-13.2,3.38-13.59,11.25h4.1c.13-5.46,3.9-7.8,9-7.8,4.81,0,8.77,1.36,8.77,6.89,0,3.7-1.88,4.16-5.26,4.55-8.84,1-18,1.36-18,10.79,0,6.76,5.07,9.81,11.25,9.81,6.43,0,9.36-2.47,12.22-6.82H203c0,3.51.65,5.85,4.81,5.85a11.48,11.48,0,0,0,2.66-.26" transform="translate(-35.16 -35.32)"/><path class="cls-1" d="M239.52,65c0,7-3.18,14.3-11,14.3-8.71,0-11.77-7.35-11.77-14.3s3.06-14.3,11.77-14.3c7.8,0,11,7.34,11,14.3m4.1,0c0-9.49-4.88-17.75-15.08-17.75-5,0-9.88,2.54-11.64,7.35h-.13V35.32h-4.09V81.73h3.77V75.36h.13c1.88,4.55,6.56,7.34,12,7.34,10.2,0,15.08-8.25,15.08-17.74" transform="translate(-35.16 -35.32)"/><path class="cls-1" d="M277.29,58C277,50.72,271.7,47.21,265,47.21c-5.91,0-12.61,2.6-12.61,9.43,0,5.72,4,7.54,9.36,9L267,66.78c3.7.91,7.34,2.21,7.34,6.11,0,4.68-5.33,6.37-9.16,6.37-5.46,0-9.56-2.86-9.88-8.39h-4.1c.65,8.19,6,11.83,13.78,11.83,6.24,0,13.46-2.79,13.46-10.07,0-5.85-4.88-8.58-9.56-9.3l-5.46-1.23c-2.79-.72-6.95-2-6.95-5.66,0-4.35,4.29-5.78,7.93-5.78,4.68,0,8.58,2.27,8.77,7.34Z" transform="translate(-35.16 -35.32)"/><path class="cls-1" d="M306.52,62.62H284.81c.65-6.11,4.36-12,11.05-12s10.47,5.78,10.66,12M295.86,47.21c-10.66,0-15.14,8.91-15.14,17.75,0,9.55,4.48,17.74,15.14,17.74,8.45,0,12.87-4.42,14.63-12h-4.1c-1.3,5.07-4.55,8.58-10.53,8.58-7.86,0-11-7.22-11.05-13.2h25.81c.32-9.42-4-18.85-14.76-18.85" transform="translate(-35.16 -35.32)"/><path class="cls-1" d="M313.22,81.73h4.09V63.85c0-7,5.07-12.41,12.48-12v-4.1a12.4,12.4,0,0,0-12.67,8.32H317V48.19h-3.77Z" transform="translate(-35.16 -35.32)"/><polygon class="cls-1" points="309.65 46.41 314 46.41 326.55 12.87 322.32 12.87 311.92 42.31 311.79 42.31 301.26 12.87 296.71 12.87 309.65 46.41"/><rect class="cls-1" x="328.67" y="12.87" width="4.1" height="33.54"/><path class="cls-1" d="M362.88,41.88" transform="translate(-35.16 -35.32)"/><path class="cls-1" d="M399.8,58.72c-.91-7.67-6.43-11.51-13.58-11.51-10.27,0-15.86,8.13-15.86,17.75S376,82.7,386.22,82.7c7.47,0,12.74-4.94,13.84-13H396c-.52,5.59-4.68,9.56-9.75,9.56-7.87,0-11.77-7.15-11.77-14.3s3.9-14.3,11.77-14.3c5.33,0,8.38,3.05,9.49,8.06Z" transform="translate(-35.16 -35.32)"/><path class="cls-1" d="M428,62.62H406.31c.65-6.11,4.36-12,11.05-12s10.47,5.78,10.66,12M417.36,47.21c-10.66,0-15.14,8.91-15.14,17.75,0,9.55,4.48,17.74,15.14,17.74,8.45,0,12.87-4.42,14.63-12h-4.1c-1.3,5.07-4.55,8.58-10.53,8.58-7.86,0-11-7.22-11.05-13.2h25.81c.32-9.42-4-18.85-14.76-18.85" transform="translate(-35.16 -35.32)"/><path class="cls-1" d="M460.43,58c-.26-7.28-5.59-10.79-12.29-10.79-5.91,0-12.61,2.6-12.61,9.43,0,5.72,4,7.54,9.36,9l5.27,1.17c3.7.91,7.34,2.21,7.34,6.11,0,4.68-5.33,6.37-9.16,6.37-5.46,0-9.56-2.86-9.88-8.39h-4.1c.65,8.19,6,11.83,13.78,11.83,6.24,0,13.46-2.79,13.46-10.07,0-5.85-4.88-8.58-9.56-9.3l-5.46-1.23c-2.79-.72-6.95-2-6.95-5.66,0-4.35,4.29-5.78,7.93-5.78,4.68,0,8.58,2.27,8.77,7.34Z" transform="translate(-35.16 -35.32)"/><polygon class="cls-1" points="330.7 0.03 328.67 6.54 332.73 6.54 334.76 0.03 330.7 0.03"/><path class="cls-1" d="M64.67,48.12H57.26v19.5c0,5.2-2.08,9.17-8.26,9.17-4,0-6.43-2.15-6.43-8.06V48.12H35.16V69.44c0,8.78,3.77,13.2,12.54,13.2a11.28,11.28,0,0,0,9.56-5.59h.13v4.68h7.28Z" transform="translate(-35.16 -35.32)"/><path class="cls-1" d="M67.85,81.73h7.41V61.9c0-4.94,3.18-8.84,8.12-8.84,4.36,0,6.44,2.28,6.57,7.54V81.73h7.41V58.65c0-7.54-4.62-11.44-11.9-11.44a12,12,0,0,0-10.46,6l-.13-.13V48.12h-7Z" transform="translate(-35.16 -35.32)"/><rect class="cls-1" x="65.38" y="12.8" width="7.41" height="33.61"/><path class="cls-1" d="M100.05,42.34" transform="translate(-35.16 -35.32)"/><path class="cls-1" d="M110.44,53.65H116V73.47c.13,5.59,1.56,8.58,9.29,8.58,1.63,0,3.19-.26,4.81-.39V75.94a12.66,12.66,0,0,1-3.12.26c-3.31,0-3.57-1.56-3.57-4.61V53.65h6.69V48.12h-6.69V39.74L116,43.39v4.73h-5.59Z" transform="translate(-35.16 -35.32)"/><path class="cls-1" d="M144.39,81.6l-.85,2.6c-.91,2.86-1.75,4.68-5.2,4.68a21.1,21.1,0,0,1-3.51-.46v6.24a33.53,33.53,0,0,0,5.14.39c7.73,0,9.49-5.46,11.89-11.5l13.07-35.43h-7.74l-8.51,25.09h-.13l-8.78-25.09h-8.12Z" transform="translate(-35.16 -35.32)"/><polygon class="cls-1" points="75.02 1 72.81 8.07 65.38 8.06 67.58 1 75.02 1"/><path class="cls-1" d="M100.05,42.34" transform="translate(-35.16 -35.32)"/></svg>